# xmcd
#
# Track frame offsets:
#	150
#	7849
#	25840
#	37385
#	48323
#	64045
#	87429
#	98858
#	110892
#	124717
#	135562
#	149032
#	158141
#	168914
#
# Disc length: 2366 seconds
#
# Revision: 1
# Processed by: cddbd v1.5.1PL0 Copyright (c) Steve Scherf et al.
# Submitted via: audiograbber 1.83.01
#
DISCID=c1093c0e
DTITLE=The Stanley Brothers - Together For the Last Time
DYEAR=1900
DGENRE=
TTITLE0=Nobody's Business
TTITLE1=Somebody Loves You, Darling
TTITLE2=Boat Of Love
TTITLE3=Little Birdie
TTITLE4=Single Girl
TTITLE5=Takes A Worried Man
TTITLE6=I Believed In You Darling
TTITLE7=Meet Me ByThe Moonlight
TTITLE8=Roving Gambler
TTITLE9=I Just Got Wise
TTITLE10=Who'll Call You Sweetheart
TTITLE11=Wait A Little Longer Please Jesus
TTITLE12=Take Me Home Savior
TTITLE13=Stone Walls And Steel Bars
EXTD=
EXTT0=
EXTT1=
EXTT2=
EXTT3=
EXTT4=
EXTT5=
EXTT6=
EXTT7=
EXTT8=
EXTT9=
EXTT10=
EXTT11=
EXTT12=
EXTT13=
PLAYORDER=
